<?xml version="1.0" standalone="no"?>
<!DOCTYPE svg PUBLIC "-//W3C//DTD SVG 20010904//EN"
 "http://www.w3.org/TR/2001/REC-SVG-20010904/DTD/svg10.dtd">
<svg version="1.0" xmlns="http://www.w3.org/2000/svg"
 width="700.000000pt" height="700.000000pt" viewBox="0 0 700.000000 700.000000"
 preserveAspectRatio="xMidYMid meet">
<metadata>
Created by potrace 1.11, written by Peter Selinger 2001-2013
</metadata>
<g transform="translate(0.000000,700.000000) scale(0.100000,-0.100000)"
fill="#000000" stroke="none">
<path d="M6645 6993 c-38 -1 -286 -7 -550 -13 -264 -6 -660 -15 -880 -20 -220
-5 -593 -14 -830 -20 -236 -6 -612 -15 -835 -20 -223 -5 -607 -14 -855 -20
-247 -5 -520 -12 -605 -16 l-154 -6 -33 -33 -33 -33 0 -394 c0 -340 2 -397 16
-416 30 -43 59 -49 272 -57 201 -7 204 -8 198 -29 -19 -69 -27 -252 -17 -363
10 -107 21 -156 83 -378 26 -92 35 -306 18 -412 -17 -107 -48 -206 -63 -200
-200 87 -269 101 -456 94 -195 -7 -323 -50 -470 -155 l-74 -53 -111 35 c-152
48 -219 59 -371 58 -105 0 -149 -5 -229 -26 -238 -61 -410 -188 -532 -394
-109 -181 -139 -329 -127 -632 1 -30 0 -174 -3 -320 -8 -375 11 -571 81 -846
110 -432 349 -849 670 -1169 290 -290 632 -501 1013 -626 l102 -34 0 -203 c0
-162 3 -209 15 -232 33 -64 -78 -60 1615 -60 1644 0 1571 -2 1611 46 11 13 15
66 19 233 l5 215 35 12 c282 98 480 190 659 308 546 360 936 906 1090 1525 63
251 81 427 81 794 0 301 -4 322 -65 351 -20 10 -60 16 -99 16 l-67 0 108 125
c60 69 112 137 117 151 14 43 -1 87 -47 131 -23 22 -234 205 -469 405 -299
256 -436 367 -458 372 -59 11 -91 -14 -240 -188 -79 -91 -147 -166 -151 -166
-5 0 -41 21 -80 46 -92 60 -206 109 -327 141 -84 22 -118 26 -257 26 -176 1
-262 -14 -412 -73 -42 -16 -79 -27 -82 -25 -2 3 8 44 22 92 46 154 52 200 52
388 0 193 -4 222 -61 419 -47 163 -60 286 -46 428 7 61 13 113 15 115 2 1 554
-10 1227 -26 672 -16 1232 -26 1244 -21 11 4 32 20 46 35 l25 27 3 499 c3 556
3 552 -63 583 -33 16 -85 17 -290 9z m-3738 -725 c-3 -7 -5 -2 -5 12 0 14 2
19 5 13 2 -7 2 -19 0 -25z m467 0 c-6 -37 -32 -139 -69 -276 -35 -133 -49
-295 -36 -436 10 -106 29 -193 83 -376 19 -64 22 -100 22 -255 l1 -180 -42
-145 c-23 -80 -46 -172 -52 -205 -29 -180 -20 -379 25 -545 56 -204 62 -232
69 -290 l7 -60 -114 0 -114 0 -12 99 c-7 54 -31 161 -54 237 -38 130 -41 149
-45 296 -6 174 2 242 47 388 50 163 63 264 57 450 -5 172 -14 217 -73 405 -27
86 -28 99 -29 290 l0 200 42 145 c23 80 45 163 48 185 3 22 8 55 11 73 l5 32
114 0 115 0 -6 -32z m461 -25 c-4 -31 -20 -99 -36 -151 -53 -173 -64 -244 -64
-422 0 -180 11 -250 66 -427 66 -213 63 -424 -10 -674 -84 -290 -81 -520 13
-834 15 -49 30 -122 34 -162 l8 -73 -112 0 -113 0 -6 48 c-12 98 -36 215 -60
290 -31 96 -55 243 -55 342 0 108 15 197 59 350 76 263 81 515 15 735 -61 204
-68 243 -68 400 -1 159 6 205 55 364 16 52 35 134 41 183 l12 88 114 0 114 0
-7 -57z m469 10 c-3 -27 -22 -100 -40 -164 -47 -164 -64 -273 -64 -418 0 -144
18 -273 56 -391 43 -138 54 -207 54 -357 0 -153 -6 -197 -50 -343 -43 -141
-60 -256 -60 -405 0 -153 15 -252 65 -420 19 -65 38 -150 42 -187 l6 -68 -117
0 -116 0 0 38 c0 66 -20 164 -63 312 l-42 145 1 185 0 185 42 140 c64 220 80
350 62 535 -12 126 -19 160 -61 300 -37 125 -49 203 -49 330 0 129 11 201 55
351 18 63 39 152 46 197 l12 82 114 0 114 0 -7 -47z m-1409 -53 c-4 -23 -9
-39 -12 -36 -3 2 -2 23 2 46 4 23 9 39 12 36 3 -2 2 -23 -2 -46z m-79 -297
c-4 -16 -10 -100 -13 -188 -6 -187 6 -278 64 -469 l37 -121 0 -200 c0 -161 -3
-211 -17 -255 -77 -247 -81 -272 -81 -490 -1 -219 1 -231 68 -456 14 -45 28
-113 32 -153 l7 -71 -115 0 -115 0 -6 78 c-6 72 -27 165 -79 342 -19 64 -22
100 -22 255 l-1 180 42 145 c58 201 66 253 66 430 0 165 -14 251 -68 429 -14
47 -30 116 -36 155 -13 82 -6 322 11 379 l11 37 111 0 110 0 -6 -27z m-640
-1508 c45 -15 99 -37 120 -50 l39 -23 0 -129 0 -129 -60 20 c-77 25 -284 28
-356 4 l-47 -15 -51 58 c-28 32 -90 89 -136 126 l-85 67 37 23 c141 86 367
106 539 48z m-1026 -115 c357 -103 629 -375 749 -747 l10 -33 -72 0 -72 0 -17
73 c-29 120 -80 210 -172 303 -66 66 -97 89 -166 122 -109 51 -173 66 -285 66
-112 0 -176 -15 -284 -66 -164 -78 -296 -245 -338 -425 l-17 -73 -117 0 c-140
0 -133 -8 -132 145 1 316 189 566 483 645 103 28 319 23 430 -10z m1110 -447
c36 -16 84 -48 108 -69 37 -34 44 -48 57 -109 8 -38 15 -89 15 -112 l0 -43
-145 0 c-108 0 -146 3 -149 13 -33 122 -54 186 -83 252 -19 44 -37 86 -40 94
-5 11 10 13 83 9 73 -3 101 -9 154 -35z m-1035 -19 c141 -36 259 -152 291
-286 l6 -28 -396 0 -396 0 6 28 c22 90 103 197 189 248 87 51 198 65 300 38z"/>
</g>
</svg>
